<svg width="83" height="37" viewBox="0 0 83 37" fill="none" xmlns="http://www.w3.org/2000/svg">
<path d="M18.3398 23.1863C23.2855 19.0383 25.0404 16.1134 25.0404 11.1677C25.0404 5.4775 22.0092 0 12.5964 0C3.18358 0 0.152344 5.47751 0.152344 12.2313H7.0657C7.0657 8.50875 8.18247 6.91336 12.5964 6.91336C17.0103 6.91336 18.1271 8.40239 18.1271 11.1677C18.1271 14.6776 15.6808 16.5921 10.6287 20.5805L0.152344 29.2488V36.1622H24.5086V29.2488H11.3733L18.3398 23.1863Z" fill="#263238"/>
<path d="M30.8844 18.2938H51.199V11.3804H30.8844V18.2938ZM30.8844 28.9297H51.199V22.0164H30.8844V28.9297Z" fill="#263238"/>
<path d="M73.0002 14.8903L81.9344 6.91336V0H58.6417V6.91336H72.2557L64.4383 14.3585L66.8313 19.6765H70.4476C74.1701 19.6765 76.0846 20.8464 76.0846 24.4626C76.0846 27.9193 74.5956 29.2488 70.0221 29.2488C65.5018 29.2488 63.9596 27.9193 63.9596 24.4626H57.0463C57.0463 30.6847 60.8752 36.1622 70.0221 36.1622C79.169 36.1622 82.998 30.6847 82.998 24.9944C82.998 17.7088 77.7864 14.3585 73.0002 14.8903Z" fill="#263238"/>
</svg>
