<svg width="119" height="96" viewBox="0 0 119 96" fill="none" xmlns="http://www.w3.org/2000/svg">
<path d="M6.83276 18.666H33.8328V53.666H6.83276V18.666Z" fill="url(#paint0_linear_381_269)"/>
<path opacity="0.1" d="M116.888 93.508C116.888 94.0415 90.7218 95.999 58.4439 95.999C26.1659 95.999 -0.000488281 94.0415 -0.000488281 93.508C-0.000488281 92.9745 26.1659 92.542 58.4439 92.542C90.7218 92.542 116.888 92.9745 116.888 93.508Z" fill="#324D8D"/>
<path d="M9.6449 61.9963C9.6449 61.7626 9.83429 61.5732 10.0679 61.5732H25.0144C25.248 61.5732 25.4374 61.7626 25.4374 61.9963V92.5942C25.4374 92.8278 25.248 93.0172 25.0144 93.0172H10.0679C9.83429 93.0172 9.6449 92.8278 9.6449 92.5942V61.9963Z" fill="url(#paint1_linear_381_269)"/>
<path d="M10.3495 62.842C10.3495 62.6083 10.5389 62.4189 10.7725 62.4189H24.1679C24.4015 62.4189 24.5909 62.6083 24.5909 62.842V74.8273C24.5909 75.0609 24.4015 75.2503 24.1679 75.2503H10.7725C10.5389 75.2503 10.3495 75.0609 10.3495 74.8273V62.842Z" fill="url(#paint2_linear_381_269)"/>
<path d="M10.4907 77.3664C10.4907 77.1327 10.6801 76.9434 10.9137 76.9434H24.3091C24.5428 76.9434 24.7322 77.1327 24.7322 77.3664V89.3517C24.7322 89.5854 24.5428 89.7747 24.3091 89.7747H10.9137C10.6801 89.7747 10.4907 89.5854 10.4907 89.3517V77.3664Z" fill="url(#paint3_linear_381_269)"/>
<path d="M4.63977 62.8176C4.63931 62.7504 4.68631 62.6922 4.75209 62.6786L9.89717 61.6094C9.98497 61.5912 10.0673 61.6585 10.0669 61.7481L9.9272 92.8236C9.92688 92.8944 9.87401 92.9541 9.80369 92.9628L5.00789 93.5623C4.92412 93.5728 4.84998 93.5078 4.8494 93.4234L4.63977 62.8176Z" fill="url(#paint4_linear_381_269)"/>
<path d="M15.5723 67.5779C15.5778 67.3483 15.7655 67.165 15.9951 67.165H17.8641C18.0948 67.165 18.283 67.3499 18.287 67.5806L18.4132 74.7718C18.4173 75.0083 18.2268 75.2023 17.9902 75.2023H15.8224C15.5848 75.2023 15.3938 75.0066 15.3995 74.7691L15.5723 67.5779Z" fill="#FFBBB6"/>
<path d="M13.2489 67.5881C13.2489 67.3544 13.4383 67.165 13.6719 67.165H15.7238C15.9546 67.165 16.1427 67.3499 16.1468 67.5806L16.2729 74.7718C16.2771 75.0083 16.0865 75.2023 15.85 75.2023H13.6719C13.4383 75.2023 13.2489 75.0129 13.2489 74.7793L13.2489 67.5881Z" fill="url(#paint5_linear_381_269)"/>
<path d="M10.4991 67.589C10.4991 67.3554 10.6885 67.166 10.9222 67.166H13.1151C13.3458 67.166 13.534 67.3509 13.538 67.5816L13.6642 74.7728C13.6683 75.0093 13.4778 75.2033 13.2412 75.2033H10.9222C10.6885 75.2033 10.4991 75.0139 10.4991 74.7802V67.589Z" fill="url(#paint6_linear_381_269)"/>
<path d="M99.3224 57.273C104.716 71.329 98.6912 93.3329 78.9993 93.3329C57.166 93.3329 33.4302 97.0362 28.7498 84.8393C23.3561 70.7834 36.5366 52.9684 55.6739 45.6248C74.8113 38.2812 93.9287 43.2171 99.3224 57.273Z" fill="url(#paint7_linear_381_269)"/>
<path opacity="0.5" d="M26.7509 86.8327C41.8064 89.8049 71.1675 92.666 85.0842 82.8327C100.148 72.1889 99.4175 52.4993 90.7509 41.916" stroke="white" stroke-width="0.189333" stroke-linecap="round" stroke-dasharray="0.38 0.95"/>
<path d="M67.316 72.9245C65.9059 75.4062 61.6053 75.7446 59.6312 75.6036L68.2325 55.5105L87.9026 49.7998C88.2786 49.9878 88.6358 51.1534 87.0566 54.3119C85.0825 58.2601 76.6222 61.1506 74.3662 62.0672C72.1101 62.9837 69.0785 69.8224 67.316 72.9245Z" fill="#835FD2" fill-opacity="0.5"/>
<path d="M57.8521 45.9367L57.3734 50.9974V52.9715H60.7539C60.836 52.9715 60.9049 52.9093 60.9132 52.8276L61.5868 46.2259C61.596 46.1362 61.5294 46.0567 61.4395 46.0499L58.0237 45.7921C57.9366 45.7855 57.8603 45.8499 57.8521 45.9367Z" fill="url(#paint8_linear_381_269)"/>
<path d="M57.6101 59.7371L59.4901 58.5408L61.2526 60.8673L60.0541 64.8154C58.033 65.2385 53.5679 66.0986 51.8758 66.155C49.7608 66.2255 48.9147 64.8154 49.2672 62.7709C49.6035 60.8206 56.1059 53.2531 56.0354 52.9711C55.9649 52.6891 56.1765 50.0805 56.3175 49.587C56.4585 49.0935 59.4901 48.8115 60.0541 49.0935C60.3979 49.2654 59.4401 49.8711 58.6215 50.3369C58.485 50.4146 58.5575 50.6374 58.7138 50.6221C59.2767 50.567 59.9086 50.5354 60.0541 50.6445C60.2569 50.7966 59.6014 51.7196 59.1425 52.2973C59.0767 52.3801 59.1234 52.4865 59.2263 52.4616C59.5687 52.3789 60.0089 52.1162 60.0541 52.4776C60.1074 52.9043 58.7986 56.749 57.404 59.5504C57.3397 59.6797 57.4882 59.8147 57.6101 59.7371Z" fill="#FEA199"/>
<path d="M57.3183 65.3548C55.8375 65.6318 54.2065 65.9112 53.0024 66.0559C54.6509 65.342 58.8278 62.518 61.0722 60.627L61.1437 60.7213L57.3183 65.3548Z" fill="#E18379"/>
<path d="M89.1704 50.644C88.7191 52.6744 81.7676 54.8506 78.5245 55.6496L77.326 50.3619C77.326 50.3619 72.1088 51.067 70.3463 51.2785C68.5837 51.49 66.5392 51.7156 66.2572 51.49C66.0472 51.322 66.0978 50.9482 66.2343 50.6421C66.2884 50.5207 66.2052 50.358 66.0745 50.3342C65.763 50.2776 65.4111 50.1129 65.4111 49.6569C65.4111 48.9881 66.3277 49.1634 66.0457 48.8109C65.5254 48.1606 65.7402 48.0354 66.0457 47.6124C69.0303 47.4949 76.6774 46.5266 81.9791 46.1318C88.6063 45.6383 89.7344 48.1059 89.1704 50.644Z" fill="#FEA199"/>
<path d="M66.9961 47.559C68.5451 47.4513 70.763 47.2238 73.1722 46.9736L71.7563 48.8819C71.515 49.4378 71.3868 50.1909 71.2806 50.8152C71.2595 50.9396 71.2392 51.0588 71.219 51.1704C70.8801 51.2135 70.5823 51.2507 70.3463 51.279C69.2893 51.4058 68.1308 51.5378 67.3119 51.5744C67.6718 50.9243 68.0836 50.1297 67.8082 50.2215C67.1152 50.4525 66.5172 49.2155 66.9961 47.559Z" fill="#FC98A6"/>
<path d="M77.3383 50.4216L77.3248 50.3622C77.3248 50.3622 74.0865 50.7998 71.8506 51.0889C73.7155 50.4542 79.9334 49.3047 79.9334 49.3047L77.3383 50.4216Z" fill="#E18379"/>
<path d="M86.2962 52.9893C83.8742 54.1589 80.5064 55.1618 78.5241 55.6502L78.2224 54.3195C78.5254 54.6017 78.8934 54.8747 79.5111 54.8747C80.01 54.8747 81.8226 54.3147 83.4862 53.8006C84.6794 53.432 85.7959 53.087 86.2962 52.9893Z" fill="#FC98A6"/>
<path d="M88.7873 51.3317C88.9873 51.1022 89.1198 50.8725 89.1705 50.6446C89.4674 49.3083 89.2953 47.9916 88.0986 47.1162C87.2489 47.4092 86.6384 48.2158 86.6384 49.1651C86.6384 50.3558 87.5989 51.3221 88.7873 51.3317Z" fill="#FC98A6"/>
<path d="M62.1007 68.1054C60.5215 66.8081 57.2126 67.0008 55.7555 67.2593C51.2669 67.1183 41.923 66.9209 40.4565 67.2593C38.6235 67.6824 31.5733 70.2204 30.1632 71.3485C28.7532 72.4765 15.1463 88.6215 14.6528 88.7625C14.1592 88.9035 11.5106 88.5966 11.6212 88.7625C13.3132 91.3006 18.0369 93.9797 19.0944 93.9092C19.9404 93.8528 20.2929 92.7811 20.2929 92.2876C20.7864 91.7941 21.8581 90.37 25.8626 86.0834C30.8682 80.7253 41.6551 76.1426 42.5716 75.7901C43.4881 75.4376 54.6275 76.2131 59.3511 75.7901C61.205 75.6241 64.4743 72.8055 65.4143 71.701C65.1793 70.902 63.68 69.4026 62.1007 68.1054Z" fill="url(#paint9_linear_381_269)"/>
<path d="M20.3738 92.2052L14.8737 88.5762C14.7576 88.6904 14.6824 88.7549 14.6531 88.7633C14.4035 88.8346 13.6022 88.7913 12.8857 88.7526C12.1859 88.7148 11.5669 88.6813 11.6215 88.7633C13.3136 91.3014 18.0372 93.9805 19.0948 93.91C19.9408 93.8536 20.2933 92.7819 20.2933 92.2884C20.3185 92.2632 20.3453 92.2355 20.3738 92.2052Z" fill="#FDFDFD"/>
<path d="M49.341 75.8112C49.071 75.8036 48.8042 75.7961 48.5415 75.7886C45.4881 75.7019 42.9869 75.6309 42.5728 75.7902C42.1812 75.9408 39.9872 76.8638 37.2123 78.2897L29.6074 71.889C29.8621 71.6238 30.052 71.4385 30.1644 71.3485C31.5745 70.2205 38.6247 67.6824 40.4577 67.2594C40.5745 67.2325 40.7411 67.2089 40.9513 67.1885L49.341 75.8112Z" fill="#C84D74" fill-opacity="0.65"/>
<path d="M59.3479 58.0474C59.2915 58.3858 60.2644 60.2565 60.6874 60.797C59.3714 62.3246 56.1048 65.6899 55.8228 67.2127C63.2255 67.7767 64.685 72.0723 65.27 71.8659C66.4686 71.443 72.8138 58.2591 73.3073 57.7655C73.8008 57.272 78.2424 56.285 78.4539 55.862C78.6654 55.439 77.6079 50.7153 77.4669 50.3628C77.3259 50.0103 66.8211 52.9008 65.6226 52.9008C64.424 52.9008 59.4184 57.6244 59.3479 58.0474Z" fill="url(#paint10_linear_381_269)"/>
<path d="M60.6419 60.736L63.5078 56.7783L60.2805 60.167C60.4138 60.3964 60.54 60.5965 60.6419 60.736Z" fill="#ADD1E7"/>
<path d="M67.1751 49.3047C66.7614 48.4773 67.0341 45.4271 68.0211 43.876C69.0081 42.3249 69.5722 42.184 70.5592 42.043C70.5592 42.043 71.4266 41.9521 72.1102 42.325C72.8858 42.748 73.1678 43.8661 73.1678 46.1321C73.1678 48.3882 71.8282 48.4587 71.5462 48.6702C71.3206 48.8394 71.1232 50.9027 71.0527 51.9133L66.6287 53.5398C66.5044 53.5855 66.3914 53.4501 66.4585 53.3359L68.2599 50.2736C68.3125 50.1841 68.2542 50.0649 68.1536 50.0391C67.8782 49.9683 67.4136 49.7818 67.1751 49.3047Z" fill="#FFBBB6"/>
<path d="M72.6639 42.8767C73.0252 43.49 73.1679 44.5209 73.1679 46.1325C73.1679 47.3786 72.7592 47.958 72.3458 48.2626C72.308 48.1713 72.3346 47.9846 72.3647 47.7738C72.4093 47.4607 72.4615 47.0943 72.3219 46.908C72.1981 46.743 71.9211 46.7438 71.6815 46.7445C71.4664 46.7451 71.2814 46.7456 71.2643 46.626C71.2377 46.4396 71.2533 46.3135 71.2671 46.2022C71.2898 46.0189 71.3076 45.8756 71.1233 45.5685C70.9118 45.216 69.5117 44.6989 68.3032 45.1455C68.2486 45.1657 68.1975 45.185 68.1497 45.2032C67.7774 45.3444 67.6003 45.4116 67.4271 45.2215C67.5831 44.7201 67.781 44.2538 68.0212 43.8764C68.8336 42.5997 69.3594 42.2784 70.0704 42.126C70.0943 42.1219 70.1163 42.1179 70.1363 42.1139C70.4869 42.0437 72.0229 42.1131 72.6639 42.8767Z" fill="#E18379"/>
<path d="M67.9789 50.7524L68.2607 50.2733C68.2911 50.2216 68.2846 50.16 68.2542 50.1123C68.2846 50.0915 68.304 50.0799 68.304 50.0799C68.304 50.0799 69.0796 50.0094 69.9256 49.5864C70.2987 49.3998 70.5484 49.2407 70.7835 49.0909C71.0815 48.9009 71.3562 48.7259 71.8291 48.5288C71.8762 48.5093 71.9075 48.4997 71.9247 48.499C71.8714 48.5222 71.821 48.5425 71.7748 48.5612C71.6757 48.6011 71.5957 48.6334 71.5471 48.6698C71.5054 48.7011 71.4647 48.7969 71.4256 48.9388C70.4303 49.6561 68.3147 50.9801 68.022 50.7849C68.0061 50.7743 67.9917 50.7635 67.9789 50.7524Z" fill="#FD8F86"/>
<path d="M68.0012 48.9138C68.0012 48.9138 68.2512 49.1474 68.5846 49.0807C69.0012 48.9974 69.2512 48.6641 69.2512 48.6641" stroke="#EB414E" stroke-width="0.189333" stroke-linecap="round"/>
<path d="M67.245 44.7924C67.1653 44.6329 66.963 43.9464 67.8795 43.0299C68.7961 42.1134 69.7831 42.0429 70.1356 41.9724C70.4881 41.9018 71.8277 41.8314 72.6032 42.6069C73.4147 43.4184 73.6607 45.286 73.3787 46.4845C73.0967 47.683 72.4622 48.1765 72.4622 48.1765C72.1031 48.2526 72.5327 47.1895 72.3212 46.9075C72.0863 46.5943 71.2998 46.8784 71.2637 46.6255C71.1932 46.132 71.4187 45.7795 71.1226 45.286C70.9111 44.9335 69.7831 44.1579 68.5746 44.6045C67.9508 44.835 67.527 45.3565 67.245 44.7924Z" fill="url(#paint11_linear_381_269)"/>
<path d="M31.0516 61.5841C34.3774 61.3422 48.3952 64.8744 55.9389 67.2949L40.5333 68.0549C40.4113 68.0609 40.3513 68.2056 40.4374 68.2922C44.4637 72.337 52.4173 80.194 52.4173 80.5816C52.4173 81.0751 48.6067 89.2916 48.0426 88.8686C47.6019 88.538 47.8902 85.7469 48.2543 84.3692C48.2695 84.3115 48.2495 84.2523 48.2008 84.2179C41.6225 79.574 29.1413 70.8824 27.456 68.9163C25.341 66.4487 27.174 61.8661 31.0516 61.5841Z" fill="url(#paint12_linear_381_269)"/>
<path d="M50.6926 78.627C51.7446 79.7245 52.4164 80.4681 52.4164 80.5807C52.4164 81.0743 48.6058 89.2908 48.0418 88.8678C47.601 88.5372 47.8893 85.746 48.2534 84.3684C48.2665 84.3188 48.2536 84.268 48.2187 84.2329L50.6926 78.627Z" fill="#FDFDFD"/>
<path d="M104.118 71.765C104.433 74.8407 106.538 83.2098 108.277 86.9934H113.072C113.26 86.9229 114.312 85.5834 117.02 80.7893C120.404 74.7966 118.437 72.6845 116.738 73.6685C115.398 74.4441 112.649 81.3533 112.437 81.2828C112.085 81.1653 112.508 64.2213 112.085 61.4717C111.662 58.7221 109.533 57.7358 108.7 59.2156C107.431 61.4717 108.019 69.9789 108.277 75.1491C107.784 73.4805 106.571 69.8896 105.669 68.8744C104.541 67.6054 103.836 69.0155 104.118 71.765Z" fill="url(#paint13_linear_381_269)"/>
<path d="M109.658 58.5348L109.961 72.1388L107.941 67.7156C107.944 67.8574 107.948 67.9996 107.952 68.1419L109.971 72.5605L110.291 86.9371L107.1 77.1532V71.7039C107.045 71.5628 106.989 71.4229 106.933 71.2851V76.6423L104.373 68.793C104.336 68.8603 104.302 68.936 104.271 69.0196L106.851 76.9274L104.721 75.2255C104.74 75.311 104.759 75.3971 104.778 75.4839L106.945 77.216L108.932 83.3091L106.403 81.744C106.427 81.8245 106.451 81.9048 106.475 81.9849L109.013 83.5546L110.134 86.9934H110.459L110.281 79.0215L112.28 75.6005C112.28 75.4911 112.28 75.3808 112.28 75.2698L110.274 78.7032L110.137 72.552L112.256 65.0089C112.252 64.8116 112.249 64.6193 112.244 64.4328L110.125 71.9809L109.825 58.5304C109.769 58.528 109.713 58.5295 109.658 58.5348Z" fill="#98F2E8"/>
<path d="M115.894 74.6128L115.551 78.3074L110.581 86.9934H110.773L114.307 80.8172L117.673 79.5438C117.708 79.4706 117.743 79.3981 117.777 79.3263L114.437 80.5897L118.34 73.7691C118.299 73.7286 118.256 73.6918 118.212 73.6588L115.751 77.9583L116.087 74.3374C116.024 74.4233 115.96 74.5153 115.894 74.6128Z" fill="#98F2E8"/>
<path d="M116.387 85.667H106.462C106.378 85.667 106.313 85.7363 106.322 85.8196C106.435 86.8676 107.105 92.9636 107.363 93.0697C107.645 93.1858 115.33 93.1872 115.612 93.0697C115.888 92.9546 116.502 88.0612 116.527 85.8062C116.528 85.7283 116.465 85.667 116.387 85.667Z" fill="url(#paint14_linear_381_269)"/>
<g filter="url(#filter0_d_381_269)">
<path d="M21.3468 30.8092C21.3468 29.8888 22.093 29.1426 23.0135 29.1426H42.5228C43.4433 29.1426 44.1895 29.8888 44.1895 30.8092V49.1906C44.1895 50.111 43.4433 50.8572 42.5228 50.8572H23.0135C22.093 50.8572 21.3468 50.111 21.3468 49.1906V30.8092Z" fill="url(#paint15_linear_381_269)"/>
</g>
<path d="M29.1333 35.3607C29.1968 34.8685 29.6159 34.5 30.1122 34.5H35.5622C36.0609 34.5 36.4812 34.872 36.5419 35.3669L37.6394 44.3207C37.7116 44.9091 37.2525 45.4278 36.6597 45.4278H28.9569C28.3616 45.4278 27.9018 44.9049 27.978 44.3145L29.1333 35.3607Z" fill="white" fill-opacity="0.62"/>
<path d="M37.2852 41.4369L37.6388 44.3216C37.7109 44.9099 37.2519 45.4287 36.6591 45.4287H33.7061C33.5729 45.0893 33.4998 44.7197 33.4998 44.333C33.4998 42.6762 34.8429 41.333 36.4998 41.333C36.7715 41.333 37.0349 41.3691 37.2852 41.4369Z" fill="#FFFDFD" fill-opacity="0.81"/>
<path d="M31.1372 36.6865C31.1372 36.6865 31.2077 38.5669 33.1113 38.4491C34.5213 38.3618 34.7328 36.6865 34.7328 36.6865" stroke="#FFA273" stroke-opacity="0.59" stroke-width="0.800904" stroke-linecap="round" stroke-linejoin="round"/>
<g filter="url(#filter1_d_381_269)">
<path d="M49.1259 19.0506C49.1259 18.0049 49.9735 17.1572 51.0192 17.1572H66.8321C67.8778 17.1572 68.7254 18.0049 68.7254 19.0506V33.8765C68.7254 34.9221 67.8778 35.7698 66.8321 35.7698H51.0192C49.9735 35.7698 49.1259 34.9221 49.1259 33.8765V19.0506Z" fill="url(#paint16_linear_381_269)"/>
</g>
<path opacity="0.6" d="M53.498 24.0022C53.3952 23.7258 53.5996 23.4316 53.8945 23.4316H62.1623C62.2427 23.4316 62.3069 23.4988 62.3031 23.5792L62.0592 28.8226C62.0417 29.1988 61.7316 29.4948 61.355 29.4948H56.0317C55.7372 29.4948 55.4736 29.3117 55.3709 29.0357L53.498 24.0022Z" fill="white"/>
<path d="M57.8691 29.9876C57.8691 30.4549 57.4903 30.8337 57.023 30.8337C56.5558 30.8337 56.177 30.4549 56.177 29.9876C56.177 29.5204 56.5558 29.1416 57.023 29.1416C57.4903 29.1416 57.8691 29.5204 57.8691 29.9876Z" fill="white"/>
<path d="M61.2527 29.9876C61.2527 30.4549 60.8739 30.8337 60.4067 30.8337C59.9394 30.8337 59.5607 30.4549 59.5607 29.9876C59.5607 29.5204 59.9394 29.1416 60.4067 29.1416C60.8739 29.1416 61.2527 29.5204 61.2527 29.9876Z" fill="white"/>
<path d="M64.0728 21.6689H61.8872L61.6141 29.1045H55.8127" stroke="white" stroke-width="0.800904" stroke-linecap="round" stroke-linejoin="round"/>
<g filter="url(#filter2_d_381_269)">
<path d="M42.3577 17.157C42.3577 21.518 38.8224 25.0532 34.4614 25.0532C30.1005 25.0532 26.5652 21.518 26.5652 17.157C26.5652 12.796 30.1005 9.26074 34.4614 9.26074C38.8224 9.26074 42.3577 12.796 42.3577 17.157Z" fill="url(#paint17_linear_381_269)"/>
</g>
<path d="M33.2626 18.2864L34.0028 17.6166L34.3054 17.334" stroke="#FDFDFD" stroke-width="0.480543"/>
<path d="M38.4088 15.5369C38.4088 16.8997 37.304 18.0045 35.9412 18.0045C34.5784 18.0045 33.4736 16.8997 33.4736 15.5369C33.4736 14.1741 34.5784 13.0693 35.9412 13.0693C37.304 13.0693 38.4088 14.1741 38.4088 15.5369Z" fill="white" fill-opacity="0.63"/>
<path d="M33.7304 18.3184L33.0584 17.7472C32.8662 17.5838 32.5746 17.6239 32.4336 17.8331L30.7333 20.3563C30.6089 20.5408 30.6487 20.79 30.8243 20.9266L30.8742 20.9654C31.0329 21.0888 31.2566 21.0835 31.4092 20.9527L33.7318 18.9619C33.9292 18.7926 33.9286 18.4869 33.7304 18.3184Z" fill="white"/>
<path d="M90.5814 0.166016V27.6619" stroke="url(#paint18_linear_381_269)" stroke-width="0.480543"/>
<path d="M91.9918 31.1872C91.9918 31.927 91.3921 32.5267 90.6523 32.5267C89.9125 32.5267 89.3127 31.927 89.3127 31.1872C89.3127 30.4474 89.9125 29.8477 90.6523 29.8477C91.3921 29.8477 91.9918 30.4474 91.9918 31.1872Z" fill="#8FC0C7"/>
<path d="M86.9685 30.4819L90.247 27.4149C90.399 27.2727 90.6319 27.2622 90.796 27.3902L94.3918 30.1927C94.7029 30.4352 94.5422 30.9339 94.148 30.9491L87.2738 31.2135C86.8824 31.2285 86.6825 30.7494 86.9685 30.4819Z" fill="#B7E4EB"/>
<circle cx="21.5159" cy="57.6903" r="0.758654" fill="url(#paint19_linear_381_269)"/>
<circle cx="103.916" cy="50.0827" r="1.41667" fill="url(#paint20_linear_381_269)"/>
<circle cx="45.9931" cy="13.2519" r="0.962808" fill="url(#paint21_linear_381_269)"/>
<circle cx="84.808" cy="68.4501" r="0.962808" fill="#FFBBB6"/>
<g filter="url(#filter3_d_381_269)">
<circle cx="106.166" cy="27.9993" r="0.833333" fill="url(#paint22_linear_381_269)"/>
</g>
<defs>
<filter id="filter0_d_381_269" x="12.8268" y="21.5692" width="39.8827" height="38.7548" filterUnits="userSpaceOnUse" color-interpolation-filters="sRGB">
<feFlood flood-opacity="0" result="BackgroundImageFix"/>
<feColorMatrix in="SourceAlpha" type="matrix" values="0 0 0 0 0 0 0 0 0 0 0 0 0 0 0 0 0 0 127 0" result="hardAlpha"/>
<feOffset dy="0.946667"/>
<feGaussianBlur stdDeviation="4.26"/>
<feColorMatrix type="matrix" values="0 0 0 0 0 0 0 0 0 0 0 0 0 0 0 0 0 0 0.1 0"/>
<feBlend mode="normal" in2="BackgroundImageFix" result="effect1_dropShadow_381_269"/>
<feBlend mode="normal" in="SourceGraphic" in2="effect1_dropShadow_381_269" result="shape"/>
</filter>
<filter id="filter1_d_381_269" x="40.6059" y="9.58389" width="36.6396" height="35.6523" filterUnits="userSpaceOnUse" color-interpolation-filters="sRGB">
<feFlood flood-opacity="0" result="BackgroundImageFix"/>
<feColorMatrix in="SourceAlpha" type="matrix" values="0 0 0 0 0 0 0 0 0 0 0 0 0 0 0 0 0 0 127 0" result="hardAlpha"/>
<feOffset dy="0.946667"/>
<feGaussianBlur stdDeviation="4.26"/>
<feColorMatrix type="matrix" values="0 0 0 0 0 0 0 0 0 0 0 0 0 0 0 0 0 0 0.1 0"/>
<feBlend mode="normal" in2="BackgroundImageFix" result="effect1_dropShadow_381_269"/>
<feBlend mode="normal" in="SourceGraphic" in2="effect1_dropShadow_381_269" result="shape"/>
</filter>
<filter id="filter2_d_381_269" x="18.0452" y="1.68741" width="32.8325" height="32.832" filterUnits="userSpaceOnUse" color-interpolation-filters="sRGB">
<feFlood flood-opacity="0" result="BackgroundImageFix"/>
<feColorMatrix in="SourceAlpha" type="matrix" values="0 0 0 0 0 0 0 0 0 0 0 0 0 0 0 0 0 0 127 0" result="hardAlpha"/>
<feOffset dy="0.946667"/>
<feGaussianBlur stdDeviation="4.26"/>
<feColorMatrix type="matrix" values="0 0 0 0 0 0 0 0 0 0 0 0 0 0 0 0 0 0 0.1 0"/>
<feBlend mode="normal" in2="BackgroundImageFix" result="effect1_dropShadow_381_269"/>
<feBlend mode="normal" in="SourceGraphic" in2="effect1_dropShadow_381_269" result="shape"/>
</filter>
<filter id="filter3_d_381_269" x="98.7144" y="21.1357" width="14.9039" height="14.9043" filterUnits="userSpaceOnUse" color-interpolation-filters="sRGB">
<feFlood flood-opacity="0" result="BackgroundImageFix"/>
<feColorMatrix in="SourceAlpha" type="matrix" values="0 0 0 0 0 0 0 0 0 0 0 0 0 0 0 0 0 0 127 0" result="hardAlpha"/>
<feOffset dy="0.588324"/>
<feGaussianBlur stdDeviation="3.30932"/>
<feColorMatrix type="matrix" values="0 0 0 0 0.396078 0 0 0 0 0.658824 0 0 0 0 0.988235 0 0 0 0.15 0"/>
<feBlend mode="normal" in2="BackgroundImageFix" result="effect1_dropShadow_381_269"/>
<feBlend mode="normal" in="SourceGraphic" in2="effect1_dropShadow_381_269" result="shape"/>
</filter>
<linearGradient id="paint0_linear_381_269" x1="20.4712" y1="48.9904" x2="27.6272" y2="25.2682" gradientUnits="userSpaceOnUse">
<stop stop-color="#FFD9F0"/>
<stop offset="1" stop-color="#EFF6FF"/>
</linearGradient>
<linearGradient id="paint1_linear_381_269" x1="14.2226" y1="71.1659" x2="24.3892" y2="85.6659" gradientUnits="userSpaceOnUse">
<stop stop-color="#A7D9E0"/>
<stop offset="1" stop-color="#E3DBFB"/>
</linearGradient>
<linearGradient id="paint2_linear_381_269" x1="31.7222" y1="70.6655" x2="27.6388" y2="79.4155" gradientUnits="userSpaceOnUse">
<stop stop-color="#76B0B8"/>
<stop offset="1" stop-color="#C9C2E1"/>
</linearGradient>
<linearGradient id="paint3_linear_381_269" x1="21.3057" y1="79.5832" x2="16.1391" y2="88.1665" gradientUnits="userSpaceOnUse">
<stop stop-color="#76B0B8"/>
<stop offset="1" stop-color="#C9C2E2"/>
</linearGradient>
<linearGradient id="paint4_linear_381_269" x1="7.35329" y1="61.574" x2="7.35329" y2="93.582" gradientUnits="userSpaceOnUse">
<stop stop-color="#A7D9E0"/>
<stop offset="1" stop-color="#E5DBFC"/>
</linearGradient>
<linearGradient id="paint5_linear_381_269" x1="14.6942" y1="67.165" x2="14.6942" y2="75.2023" gradientUnits="userSpaceOnUse">
<stop stop-color="#68D7FA"/>
<stop offset="1" stop-color="#77E9C9"/>
</linearGradient>
<linearGradient id="paint6_linear_381_269" x1="12.0854" y1="67.166" x2="12.0854" y2="75.2033" gradientUnits="userSpaceOnUse">
<stop stop-color="#A58AFF"/>
<stop offset="1" stop-color="#5EB2FF"/>
</linearGradient>
<linearGradient id="paint7_linear_381_269" x1="71.7214" y1="89.9996" x2="63.8048" y2="51.0829" gradientUnits="userSpaceOnUse">
<stop stop-color="#B483FF"/>
<stop offset="1" stop-color="#68ADFF"/>
</linearGradient>
<linearGradient id="paint8_linear_381_269" x1="57.3045" y1="45.8321" x2="62.8045" y2="47.1654" gradientUnits="userSpaceOnUse">
<stop stop-color="#FF956F"/>
<stop offset="1" stop-color="#FFC380"/>
</linearGradient>
<linearGradient id="paint9_linear_381_269" x1="42.1381" y1="68.2481" x2="44.1381" y2="84.1648" gradientUnits="userSpaceOnUse">
<stop stop-color="#CE5379"/>
<stop offset="1" stop-color="#F49274"/>
</linearGradient>
<linearGradient id="paint10_linear_381_269" x1="68.8049" y1="59.1653" x2="69.3049" y2="73.6653" gradientUnits="userSpaceOnUse">
<stop stop-color="#F3F6F8"/>
<stop offset="1" stop-color="#AAD7F5"/>
</linearGradient>
<linearGradient id="paint11_linear_381_269" x1="70.33" y1="41.9316" x2="70.4725" y2="44.7479" gradientUnits="userSpaceOnUse">
<stop stop-color="#954040"/>
<stop offset="1" stop-color="#612828"/>
</linearGradient>
<linearGradient id="paint12_linear_381_269" x1="26.6394" y1="60.3316" x2="46.3894" y2="84.7482" gradientUnits="userSpaceOnUse">
<stop stop-color="#C94B79"/>
<stop offset="1" stop-color="#F59474"/>
</linearGradient>
<linearGradient id="paint13_linear_381_269" x1="114.556" y1="66.5831" x2="109.306" y2="90.4165" gradientUnits="userSpaceOnUse">
<stop stop-color="#68D7FA"/>
<stop offset="1" stop-color="#7AEDBE"/>
</linearGradient>
<linearGradient id="paint14_linear_381_269" x1="111.417" y1="85.667" x2="111.468" y2="94.3655" gradientUnits="userSpaceOnUse">
<stop stop-color="#FF8C6B"/>
<stop offset="1" stop-color="#FFCB82"/>
</linearGradient>
<linearGradient id="paint15_linear_381_269" x1="32.7681" y1="29.1426" x2="32.7681" y2="50.8572" gradientUnits="userSpaceOnUse">
<stop stop-color="#FF906D"/>
<stop offset="1" stop-color="#FFCB82"/>
</linearGradient>
<linearGradient id="paint16_linear_381_269" x1="58.9257" y1="17.1572" x2="54.139" y2="35.8329" gradientUnits="userSpaceOnUse">
<stop stop-color="#7AEDC0"/>
<stop offset="1" stop-color="#68D7F9"/>
</linearGradient>
<linearGradient id="paint17_linear_381_269" x1="34.4614" y1="9.26074" x2="34.4614" y2="25.0532" gradientUnits="userSpaceOnUse">
<stop stop-color="#B681FF"/>
<stop offset="1" stop-color="#64AFFF"/>
</linearGradient>
<linearGradient id="paint18_linear_381_269" x1="84.4286" y1="24.4994" x2="84.4425" y2="3.83236" gradientUnits="userSpaceOnUse">
<stop stop-color="#A7D9E0"/>
<stop offset="1" stop-color="#A7D9E0" stop-opacity="0"/>
</linearGradient>
<linearGradient id="paint19_linear_381_269" x1="21.5159" y1="56.9316" x2="21.5159" y2="58.4489" gradientUnits="userSpaceOnUse">
<stop stop-color="#FFB798"/>
<stop offset="1" stop-color="#FFDF6F"/>
</linearGradient>
<linearGradient id="paint20_linear_381_269" x1="103.916" y1="48.666" x2="103.916" y2="51.4993" gradientUnits="userSpaceOnUse">
<stop stop-color="#FFB798"/>
<stop offset="1" stop-color="#FFDF6F"/>
</linearGradient>
<linearGradient id="paint21_linear_381_269" x1="45.9931" y1="12.2891" x2="45.9931" y2="14.2147" gradientUnits="userSpaceOnUse">
<stop stop-color="#FFB798"/>
<stop offset="1" stop-color="#FF6F9A"/>
</linearGradient>
<linearGradient id="paint22_linear_381_269" x1="106.166" y1="27.166" x2="105.619" y2="28.8327" gradientUnits="userSpaceOnUse">
<stop stop-color="#68D7FA"/>
<stop offset="1" stop-color="#7EF1B3"/>
</linearGradient>
</defs>
</svg>
