<svg width="83" height="9" viewBox="0 0 83 9" fill="none" xmlns="http://www.w3.org/2000/svg">
<path d="M1.98466 0.51856H0V8.24403H1.98466V5.21118H4.54473V8.24403H6.51476V0.51856H4.54473V3.52626H1.98466V0.51856Z" fill="#263238"/>
<path d="M10.1249 8.38989C11.2318 8.38989 11.9486 7.89196 12.3144 7.17273H12.3729V8.24403H14.3429V3.03336C14.3429 1.19253 12.8312 0.417969 11.1635 0.417969C9.36906 0.417969 8.18899 1.30318 7.90129 2.71147L9.82256 2.87242C9.96397 2.3594 10.4077 1.98217 11.1538 1.98217C11.8609 1.98217 12.2656 2.34934 12.2656 2.98307V3.01324C12.2656 3.51117 11.7536 3.57656 10.4516 3.70733C8.9692 3.84816 7.63797 4.36118 7.63797 6.08633C7.63797 7.61533 8.69613 8.38989 10.1249 8.38989ZM10.7198 6.91119C10.081 6.91119 9.62263 6.60438 9.62263 6.01592C9.62263 5.41236 10.1054 5.11562 10.8368 5.01C11.2903 4.94461 12.0315 4.83396 12.2802 4.66295V5.48278C12.2802 6.29254 11.6317 6.91119 10.7198 6.91119Z" fill="#263238"/>
<path d="M18.858 8.24403H22.5445C24.417 8.24403 25.4606 7.45438 25.4606 6.13663C25.4606 5.12065 24.6804 4.31591 23.3345 4.21532C24.4073 4.02419 25.0461 3.44076 25.0461 2.60585C25.0461 1.26797 23.9001 0.51856 22.052 0.51856H18.858V8.24403ZM20.7939 6.63959V4.95467H22.5445C23.1199 4.95467 23.471 5.29165 23.471 5.83988C23.471 6.33781 23.1199 6.63959 22.5445 6.63959H20.7939ZM20.7939 3.69727V2.15821H22.052C22.6957 2.15821 23.0907 2.4449 23.0907 2.91768C23.0907 3.40555 22.7152 3.69727 22.0959 3.69727H20.7939Z" fill="#263238"/>
<path d="M30.0167 8.39492C32.0111 8.39492 33.2643 7.18781 33.3619 5.41236H31.4016C31.2797 6.23722 30.753 6.69994 30.0411 6.69994C29.0707 6.69994 28.4417 5.86 28.4417 4.3813C28.4417 2.92271 29.0756 2.0878 30.0411 2.0878C30.8018 2.0878 31.2894 2.60585 31.4016 3.37538H33.3619C33.2741 1.58987 31.9624 0.417969 30.007 0.417969C27.7346 0.417969 26.3302 2.04253 26.3302 4.41147C26.3302 6.7603 27.7102 8.39492 30.0167 8.39492Z" fill="#263238"/>
<path d="M37.968 8.39492C39.821 8.39492 41.0693 7.46444 41.3619 6.03101L39.4406 5.90024C39.2309 6.4887 38.6945 6.79551 38.0021 6.79551C36.9635 6.79551 36.3052 6.08633 36.3052 4.93455V4.92952H41.4058V4.34106C41.4058 1.71561 39.8649 0.417969 37.8851 0.417969C35.681 0.417969 34.2522 2.03247 34.2522 4.4165C34.2522 6.86592 35.6615 8.39492 37.968 8.39492ZM36.3052 3.60171C36.349 2.72153 36.9976 2.01738 37.9192 2.01738C38.8213 2.01738 39.4455 2.68129 39.4504 3.60171H36.3052Z" fill="#263238"/>
<path d="M45.6649 8.24403H47.7422V5.5029H48.5175L50.3657 8.24403H52.8331L50.156 4.35112L52.8038 0.51856H50.3657L48.3274 3.5162H47.7422V0.51856H45.6649V8.24403Z" fill="#263238"/>
<path d="M55.5582 0.51856H53.5735V8.24403H55.5582V5.21118H58.1182V8.24403H60.0883V0.51856H58.1182V3.52626H55.5582V0.51856Z" fill="#263238"/>
<path d="M63.5472 5.41739V0.51856H61.5626V8.24403H63.6253L66.3121 3.33011V8.24403H68.2919V0.51856H66.2438L63.5472 5.41739Z" fill="#263238"/>
<path d="M74.9497 0.51856H69.8198V8.24403H71.8386V2.20348H74.9497V0.51856Z" fill="#263238"/>
<path d="M78.0637 5.41739V0.51856H76.079V8.24403H78.1417L80.8286 3.33011V8.24403H82.8083V0.51856H80.7603L78.0637 5.41739Z" fill="#263238"/>
</svg>
