<svg width="40" height="40" viewBox="0 0 40 40" fill="none" xmlns="http://www.w3.org/2000/svg">
<g clip-path="url(#clip0_8_9)">
<path d="M40 20.0504C39.9361 31.0932 31.0735 39.9961 20.009 39.9904C8.86266 39.9846 0.0307133 30.9808 0.0345471 20.0134C0.038381 8.92965 8.97576 0.00633016 20.0345 0.0325282C31.2684 0.0580873 39.986 9.11048 40 20.0504ZM21.6492 17.175H21.609C21.609 16.4945 21.6397 15.8121 21.5988 15.1335C21.5694 14.6543 21.2921 14.4447 20.8077 14.4421C19.7643 14.4357 18.7208 14.4421 17.6767 14.4421C17.3317 14.4421 17.062 14.5955 16.846 14.8498C16.6627 15.0658 16.6889 15.1412 16.9681 15.2089C17.4716 15.3309 17.7726 15.6491 17.8224 16.1571C17.8942 16.7694 17.9294 17.3854 17.9278 18.0019C17.9149 18.4978 17.8467 18.9907 17.7246 19.4715C17.6205 19.8875 17.3004 19.9769 16.9681 19.7047C16.7158 19.4936 16.4914 19.2512 16.3004 18.9833C15.5202 17.8921 14.8764 16.7095 14.3834 15.4619C14.2135 15.0383 13.9272 14.8185 13.4601 14.8229C12.5975 14.8319 11.7349 14.8229 10.8722 14.8229C10.1924 14.8268 10.0167 15.0868 10.3087 15.7028C10.7917 16.7213 11.2703 17.7431 11.7994 18.7373C12.6499 20.3348 13.5968 21.8785 14.8314 23.2198C16.4927 25.0204 18.5655 25.7431 20.9815 25.5527C21.4288 25.5169 21.6205 25.3092 21.6646 24.8594C21.6946 24.5533 21.708 24.2421 21.7745 23.9431C21.8563 23.5737 21.9227 23.1495 22.3496 23.0166C22.8135 22.8721 23.1023 23.2178 23.3815 23.5079C23.8199 23.9629 24.2282 24.4408 24.6646 24.8881C25.101 25.3354 25.6435 25.5833 26.2927 25.5731C27.2186 25.5584 28.1457 25.522 29.0703 25.5776C29.7093 25.6159 30.0064 25.0242 29.7476 24.5213C29.6026 24.2389 29.4467 23.9463 29.2365 23.7182C28.5336 22.9629 27.8077 22.2313 27.085 21.4951C26.5278 20.9284 26.4908 20.6006 26.9572 19.9616C27.4774 19.2491 28.016 18.5495 28.5355 17.8364C29.0358 17.1488 29.554 16.4683 29.7949 15.6319C29.933 15.1527 29.7911 14.9245 29.3055 14.8383C29.1785 14.8206 29.0502 14.8142 28.9221 14.8191C27.9636 14.8191 27.0052 14.8191 26.0467 14.8191C25.4486 14.8191 25.3387 14.9194 25.0882 15.4613C24.6914 16.3182 24.3036 17.1865 23.8294 17.9987C23.4901 18.5808 23.0352 19.1003 22.5943 19.6159C22.3112 19.9475 21.9675 19.8811 21.7885 19.4836C21.7034 19.2785 21.6581 19.0591 21.655 18.837C21.6384 18.2843 21.6505 17.7316 21.6505 17.1763L21.6492 17.175Z" fill="#4C75A3"/>
<path d="M21.6505 17.1764C21.6505 17.7304 21.6383 18.2844 21.6562 18.8377C21.6591 19.0597 21.7043 19.2792 21.7891 19.4844C21.9681 19.8818 22.3118 19.9483 22.5949 19.6166C23.0358 19.101 23.4895 18.5815 23.83 17.9994C24.3042 17.1853 24.692 16.3189 25.0888 15.462C25.3393 14.9201 25.4492 14.8198 26.0473 14.8198C27.0058 14.8198 27.9642 14.8198 28.9227 14.8198C29.0508 14.8149 29.1791 14.8213 29.3061 14.839C29.7917 14.9253 29.9335 15.1534 29.7955 15.6326C29.5546 16.469 29.0364 17.1495 28.5361 17.8371C28.0166 18.5502 27.478 19.2499 26.9578 19.9623C26.4907 20.6013 26.5278 20.9285 27.0856 21.4959C27.8083 22.232 28.5355 22.9655 29.2371 23.7189C29.4498 23.9483 29.6058 24.2396 29.7482 24.5221C30.007 25.0249 29.7099 25.6166 29.0709 25.5783C28.1482 25.5227 27.2179 25.5591 26.2933 25.5738C25.6454 25.5853 25.1118 25.3425 24.6645 24.8882C24.2173 24.4339 23.8198 23.963 23.3866 23.5106C23.1074 23.2205 22.8185 22.8748 22.3546 23.0192C21.9278 23.1521 21.8613 23.5764 21.7796 23.9457C21.7157 24.2447 21.6997 24.5559 21.6697 24.862C21.6249 25.3093 21.4371 25.5195 20.9866 25.5553C18.5706 25.747 16.4946 25.023 14.8364 23.2224C13.6019 21.8805 12.655 20.3393 11.8045 18.74C11.2754 17.7457 10.7968 16.724 10.3137 15.7055C10.0217 15.0895 10.1974 14.8294 10.8773 14.8256C11.7399 14.8217 12.6026 14.8313 13.4652 14.8256C13.9323 14.8205 14.2185 15.0403 14.3885 15.4646C14.8815 16.7121 15.5253 17.8947 16.3054 18.986C16.4964 19.2538 16.7208 19.4963 16.9732 19.7074C17.3054 19.9796 17.6256 19.8901 17.7297 19.4741C17.8518 18.9933 17.92 18.5004 17.9329 18.0045C17.9346 17.3868 17.8994 16.7695 17.8275 16.1559C17.7776 15.6479 17.4767 15.3297 16.9732 15.2077C16.6939 15.14 16.6677 15.0646 16.8511 14.8486C17.0665 14.593 17.3361 14.4403 17.6818 14.4409C18.7259 14.4409 19.7693 14.4371 20.8128 14.4409C21.2971 14.4409 21.5744 14.6531 21.6038 15.1323C21.6447 15.8109 21.6141 16.4933 21.6141 17.1738L21.6505 17.1764Z" fill="white"/>
</g>
<defs>
<clipPath id="clip0_8_9">
<rect width="40" height="40" fill="white"/>
</clipPath>
</defs>
</svg>
